<svg id="my-svg" width="100%" xmlns="http://www.w3.org/2000/svg" xmlns:xlink="http://www.w3.org/1999/xlink" class="erDiagram" style="max-width: 324.375px; background-color: transparent;" viewBox="0 0 324.375 272.5" role="graphics-document document" aria-roledescription="er"><style>#my-svg{font-family:"trebuchet ms",verdana,arial,sans-serif;font-size:16px;fill:#333;}@keyframes edge-animation-frame{from{stroke-dashoffset:0;}}@keyframes dash{to{stroke-dashoffset:0;}}#my-svg .edge-animation-slow{stroke-dasharray:9,5!important;stroke-dashoffset:900;animation:dash 50s linear infinite;stroke-linecap:round;}#my-svg .edge-animation-fast{stroke-dasharray:9,5!important;stroke-dashoffset:900;animation:dash 20s linear infinite;stroke-linecap:round;}#my-svg .error-icon{fill:#552222;}#my-svg .error-text{fill:#552222;stroke:#552222;}#my-svg .edge-thickness-normal{stroke-width:1px;}#my-svg .edge-thickness-thick{stroke-width:3.5px;}#my-svg .edge-pattern-solid{stroke-dasharray:0;}#my-svg .edge-thickness-invisible{stroke-width:0;fill:none;}#my-svg .edge-pattern-dashed{stroke-dasharray:3;}#my-svg .edge-pattern-dotted{stroke-dasharray:2;}#my-svg .marker{fill:#333333;stroke:#333333;}#my-svg .marker.cross{stroke:#333333;}#my-svg svg{font-family:"trebuchet ms",verdana,arial,sans-serif;font-size:16px;}#my-svg p{margin:0;}#my-svg .entityBox{fill:#ECECFF;stroke:#9370DB;}#my-svg .relationshipLabelBox{fill:hsl(80, 100%, 96.2745098039%);opacity:0.7;background-color:hsl(80, 100%, 96.2745098039%);}#my-svg .relationshipLabelBox rect{opacity:0.5;}#my-svg .labelBkg{background-color:rgba(248.6666666666, 255, 235.9999999999, 0.5);}#my-svg .edgeLabel{background-color:rgba(232,232,232, 0.8);}#my-svg .edgeLabel .label rect{fill:rgba(232,232,232, 0.8);}#my-svg .edgeLabel .label text{fill:#333;}#my-svg .edgeLabel .label{fill:#9370DB;font-size:14px;}#my-svg .label{font-family:"trebuchet ms",verdana,arial,sans-serif;color:#333;}#my-svg .edge-pattern-dashed{stroke-dasharray:8,8;}#my-svg .node rect,#my-svg .node circle,#my-svg .node ellipse,#my-svg .node polygon{fill:#ECECFF;stroke:#9370DB;stroke-width:1px;}#my-svg .relationshipLine{stroke:#333333;stroke-width:1px;fill:none;}#my-svg .marker{fill:none!important;stroke:#333333!important;stroke-width:1;}#my-svg [data-look=neo].labelBkg{background-color:rgba(248.6666666666, 255, 235.9999999999, 0.5);}#my-svg .cluster rect{fill:#ffffde;stroke:#aaaa33;stroke-width:1px;}#my-svg .cluster text{fill:#333;}#my-svg .cluster-label text{fill:#333;}#my-svg .node .neo-node{stroke:#9370DB;}#my-svg [data-look="neo"].node rect,#my-svg [data-look="neo"].cluster rect,#my-svg [data-look="neo"].node polygon{stroke:#9370DB;filter:drop-shadow(1px 2px 2px rgba(185, 185, 185, 1));}#my-svg [data-look="neo"].swimlane.cluster rect{filter:none;}#my-svg [data-look="neo"].node path{stroke:#9370DB;stroke-width:1px;}#my-svg [data-look="neo"].node .outer-path{filter:drop-shadow(1px 2px 2px rgba(185, 185, 185, 1));}#my-svg [data-look="neo"].node .neo-line path{stroke:#9370DB;filter:none;}#my-svg [data-look="neo"].node circle{stroke:#9370DB;filter:drop-shadow(1px 2px 2px rgba(185, 185, 185, 1));}#my-svg [data-look="neo"].node circle .state-start{fill:#000000;}#my-svg [data-look="neo"].icon-shape .icon{fill:#9370DB;filter:drop-shadow(1px 2px 2px rgba(185, 185, 185, 1));}#my-svg [data-look="neo"].icon-shape .icon-neo path{stroke:#9370DB;filter:drop-shadow(1px 2px 2px rgba(185, 185, 185, 1));}#my-svg :root{--mermaid-font-family:"trebuchet ms",verdana,arial,sans-serif;}</style><g><defs><marker id="my-svg_er-onlyOneStart" class="marker onlyOne er" refX="0" refY="9" markerWidth="18" markerHeight="18" orient="auto"><path d="M9,0 L9,18 M15,0 L15,18"/></marker></defs><defs><marker id="my-svg_er-onlyOneEnd" class="marker onlyOne er" refX="18" refY="9" markerWidth="18" markerHeight="18" orient="auto"><path d="M3,0 L3,18 M9,0 L9,18"/></marker></defs><defs><marker id="my-svg_er-zeroOrOneStart" class="marker zeroOrOne er" refX="0" refY="9" markerWidth="30" markerHeight="18" orient="auto"><circle fill="white" cx="21" cy="9" r="6"/><path d="M9,0 L9,18"/></marker></defs><defs><marker id="my-svg_er-zeroOrOneEnd" class="marker zeroOrOne er" refX="30" refY="9" markerWidth="30" markerHeight="18" orient="auto"><circle fill="white" cx="9" cy="9" r="6"/><path d="M21,0 L21,18"/></marker></defs><defs><marker id="my-svg_er-oneOrMoreStart" class="marker oneOrMore er" refX="18" refY="18" markerWidth="45" markerHeight="36" orient="auto"><path d="M0,18 Q 18,0 36,18 Q 18,36 0,18 M42,9 L42,27"/></marker></defs><defs><marker id="my-svg_er-oneOrMoreEnd" class="marker oneOrMore er" refX="27" refY="18" markerWidth="45" markerHeight="36" orient="auto"><path d="M3,9 L3,27 M9,18 Q27,0 45,18 Q27,36 9,18"/></marker></defs><defs><marker id="my-svg_er-zeroOrMoreStart" class="marker zeroOrMore er" refX="18" refY="18" markerWidth="57" markerHeight="36" orient="auto"><circle fill="white" cx="48" cy="18" r="6"/><path d="M0,18 Q18,0 36,18 Q18,36 0,18"/></marker></defs><defs><marker id="my-svg_er-zeroOrMoreEnd" class="marker zeroOrMore er" refX="39" refY="18" markerWidth="57" markerHeight="36" orient="auto"><circle fill="white" cx="9" cy="18" r="6"/><path d="M21,18 Q39,0 57,18 Q39,36 21,18"/></marker></defs><g class="root"><g class="clusters"/><g class="edgePaths"/><g class="edgeLabels"/><g class="nodes"><g class="node default" id="my-svg-entity-USERS-0" data-look="classic" transform="translate(162.1875, 136.25)"><g class="outer-path" style=""><path d="M-154.1875 -128.25 L154.1875 -128.25 L154.1875 128.25 L-154.1875 128.25" stroke="none" stroke-width="0" fill="#ECECFF"/><path d="M-154.1875 -128.25 C-31.760124653469916 -128.25, 90.66725069306017 -128.25, 154.1875 -128.25 M-154.1875 -128.25 C-36.4996309108148 -128.25, 81.1882381783704 -128.25, 154.1875 -128.25 M154.1875 -128.25 C154.1875 -49.467596572123995, 154.1875 29.31480685575201, 154.1875 128.25 M154.1875 -128.25 C154.1875 -41.77975219106234, 154.1875 44.690495617875314, 154.1875 128.25 M154.1875 128.25 C89.62990693689275 128.25, 25.072313873785504 128.25, -154.1875 128.25 M154.1875 128.25 C75.67777022082284 128.25, -2.8319595583543276 128.25, -154.1875 128.25 M-154.1875 128.25 C-154.1875 56.351622670671134, -154.1875 -15.546754658657733, -154.1875 -128.25 M-154.1875 128.25 C-154.1875 52.825219390491185, -154.1875 -22.59956121901763, -154.1875 -128.25" stroke="#9370DB" stroke-width="1.3" fill="none" stroke-dasharray="0 0"/></g><g style="" class="row-rect-odd"><path d="M-154.1875 -85.5 L154.1875 -85.5 L154.1875 -42.75 L-154.1875 -42.75" stroke="none" stroke-width="0" fill="hsl(240, 100%, 100%)"/><path d="M-154.1875 -85.5 C-65.64293763558459 -85.5, 22.901624728830825 -85.5, 154.1875 -85.5 M-154.1875 -85.5 C-38.0053551187338 -85.5, 78.1767897625324 -85.5, 154.1875 -85.5 M154.1875 -85.5 C154.1875 -74.00059695671989, 154.1875 -62.50119391343979, 154.1875 -42.75 M154.1875 -85.5 C154.1875 -71.38576657617746, 154.1875 -57.27153315235492, 154.1875 -42.75 M154.1875 -42.75 C42.12506076367353 -42.75, -69.93737847265294 -42.75, -154.1875 -42.75 M154.1875 -42.75 C74.50014738826937 -42.75, -5.1872052234612624 -42.75, -154.1875 -42.75 M-154.1875 -42.75 C-154.1875 -57.4384732359973, -154.1875 -72.1269464719946, -154.1875 -85.5 M-154.1875 -42.75 C-154.1875 -57.60786133727552, -154.1875 -72.46572267455105, -154.1875 -85.5" stroke="#9370DB" stroke-width="1.3" fill="none" stroke-dasharray="0 0"/></g><g style="" class="row-rect-even"><path d="M-154.1875 -42.75 L154.1875 -42.75 L154.1875 0 L-154.1875 0" stroke="none" stroke-width="0" fill="hsl(240, 100%, 97.2745098039%)"/><path d="M-154.1875 -42.75 C-77.86445611076932 -42.75, -1.5414122215386499 -42.75, 154.1875 -42.75 M-154.1875 -42.75 C-76.53388167106066 -42.75, 1.1197366578786898 -42.75, 154.1875 -42.75 M154.1875 -42.75 C154.1875 -33.21814821667623, 154.1875 -23.68629643335245, 154.1875 0 M154.1875 -42.75 C154.1875 -33.67254671313743, 154.1875 -24.595093426274858, 154.1875 0 M154.1875 0 C68.34106497140048 0, -17.50537005719903 0, -154.1875 0 M154.1875 0 C67.97339838575063 0, -18.240703228498745 0, -154.1875 0 M-154.1875 0 C-154.1875 -11.605760987915122, -154.1875 -23.211521975830244, -154.1875 -42.75 M-154.1875 0 C-154.1875 -16.149262647378453, -154.1875 -32.29852529475691, -154.1875 -42.75" stroke="#9370DB" stroke-width="1.3" fill="none" stroke-dasharray="0 0"/></g><g style="" class="row-rect-odd"><path d="M-154.1875 0 L154.1875 0 L154.1875 42.75 L-154.1875 42.75" stroke="none" stroke-width="0" fill="hsl(240, 100%, 100%)"/><path d="M-154.1875 0 C-60.36576871992182 0, 33.455962560156365 0, 154.1875 0 M-154.1875 0 C-45.70847239430758 0, 62.770555211384846 0, 154.1875 0 M154.1875 0 C154.1875 14.326350623912575, 154.1875 28.65270124782515, 154.1875 42.75 M154.1875 0 C154.1875 11.924340336684471, 154.1875 23.848680673368943, 154.1875 42.75 M154.1875 42.75 C67.38531372092612 42.75, -19.41687255814776 42.75, -154.1875 42.75 M154.1875 42.75 C76.46525660030778 42.75, -1.2569867993844355 42.75, -154.1875 42.75 M-154.1875 42.75 C-154.1875 30.195471647472658, -154.1875 17.640943294945316, -154.1875 0 M-154.1875 42.75 C-154.1875 27.852472915873495, -154.1875 12.95494583174699, -154.1875 0" stroke="#9370DB" stroke-width="1.3" fill="none" stroke-dasharray="0 0"/></g><g style="" class="row-rect-even"><path d="M-154.1875 42.75 L154.1875 42.75 L154.1875 85.5 L-154.1875 85.5" stroke="none" stroke-width="0" fill="hsl(240, 100%, 97.2745098039%)"/><path d="M-154.1875 42.75 C-66.77598202430923 42.75, 20.63553595138154 42.75, 154.1875 42.75 M-154.1875 42.75 C-71.01892789813108 42.75, 12.149644203737836 42.75, 154.1875 42.75 M154.1875 42.75 C154.1875 56.413873902032734, 154.1875 70.07774780406547, 154.1875 85.5 M154.1875 42.75 C154.1875 54.79326861978371, 154.1875 66.83653723956742, 154.1875 85.5 M154.1875 85.5 C74.13236416144473 85.5, -5.922771677110546 85.5, -154.1875 85.5 M154.1875 85.5 C76.01742084805717 85.5, -2.1526583038856586 85.5, -154.1875 85.5 M-154.1875 85.5 C-154.1875 69.66189648626961, -154.1875 53.82379297253923, -154.1875 42.75 M-154.1875 85.5 C-154.1875 74.84360349915022, -154.1875 64.18720699830044, -154.1875 42.75" stroke="#9370DB" stroke-width="1.3" fill="none" stroke-dasharray="0 0"/></g><g style="" class="row-rect-odd"><path d="M-154.1875 85.5 L154.1875 85.5 L154.1875 128.25 L-154.1875 128.25" stroke="none" stroke-width="0" fill="hsl(240, 100%, 100%)"/><path d="M-154.1875 85.5 C-81.30708128495249 85.5, -8.426662569904977 85.5, 154.1875 85.5 M-154.1875 85.5 C-63.05613092598385 85.5, 28.075238148032298 85.5, 154.1875 85.5 M154.1875 85.5 C154.1875 101.91778471002623, 154.1875 118.33556942005245, 154.1875 128.25 M154.1875 85.5 C154.1875 100.13664167753822, 154.1875 114.77328335507646, 154.1875 128.25 M154.1875 128.25 C37.41268784984919 128.25, -79.36212430030162 128.25, -154.1875 128.25 M154.1875 128.25 C88.44167476512364 128.25, 22.695849530247273 128.25, -154.1875 128.25 M-154.1875 128.25 C-154.1875 116.5101067309719, -154.1875 104.7702134619438, -154.1875 85.5 M-154.1875 128.25 C-154.1875 116.68302019440222, -154.1875 105.11604038880444, -154.1875 85.5" stroke="#9370DB" stroke-width="1.3" fill="none" stroke-dasharray="0 0"/></g><g class="label name" transform="translate(-21.828125, -118.875)" style=""><foreignObject width="43.65625" height="24"><div xmlns="http://www.w3.org/1999/xhtml" style="display: table-cell; white-space: nowrap; line-height: 1.5; max-width: 150px; text-align: start;"><span class="nodeLabel"><p>USERS</p></span></div></foreignObject></g><g class="label attribute-type" transform="translate(-141.6875, -76.125)" style=""><foreignObject width="35.015625" height="24"><div xmlns="http://www.w3.org/1999/xhtml" style="display: table-cell; white-space: nowrap; line-height: 1.5; max-width: 140px; text-align: start;"><span class="nodeLabel"><p>UUID</p></span></div></foreignObject></g><g class="label attribute-name" transform="translate(-80.625, -76.125)" style=""><foreignObject width="13.484375" height="24"><div xmlns="http://www.w3.org/1999/xhtml" style="display: table-cell; white-space: nowrap; line-height: 1.5; max-width: 112px; text-align: start;"><span class="nodeLabel"><p>id</p></span></div></foreignObject></g><g class="label attribute-keys" transform="translate(13.703125, -76.125)" style=""><foreignObject width="18.140625" height="24"><div xmlns="http://www.w3.org/1999/xhtml" style="display: table-cell; white-space: nowrap; line-height: 1.5; max-width: 121px; text-align: start;"><span class="nodeLabel"><p>PK</p></span></div></foreignObject></g><g class="label attribute-comment" transform="translate(58.296875, -76.125)" style=""><foreignObject width="0" height="0"><div xmlns="http://www.w3.org/1999/xhtml" style="display: table-cell; white-space: nowrap; line-height: 1.5; max-width: 100px; text-align: start;"><span class="nodeLabel"></span></div></foreignObject></g><g class="label attribute-type" transform="translate(-141.6875, -33.375)" style=""><foreignObject width="36.0625" height="24"><div xmlns="http://www.w3.org/1999/xhtml" style="display: table-cell; white-space: nowrap; line-height: 1.5; max-width: 141px; text-align: start;"><span class="nodeLabel"><p>TEXT</p></span></div></foreignObject></g><g class="label attribute-name" transform="translate(-80.625, -33.375)" style=""><foreignObject width="39.15625" height="24"><div xmlns="http://www.w3.org/1999/xhtml" style="display: table-cell; white-space: nowrap; line-height: 1.5; max-width: 135px; text-align: start;"><span class="nodeLabel"><p>name</p></span></div></foreignObject></g><g class="label attribute-keys" transform="translate(13.703125, -33.375)" style=""><foreignObject width="0" height="0"><div xmlns="http://www.w3.org/1999/xhtml" style="display: table-cell; white-space: nowrap; line-height: 1.5; max-width: 100px; text-align: start;"><span class="nodeLabel"></span></div></foreignObject></g><g class="label attribute-comment" transform="translate(58.296875, -33.375)" style=""><foreignObject width="0" height="0"><div xmlns="http://www.w3.org/1999/xhtml" style="display: table-cell; white-space: nowrap; line-height: 1.5; max-width: 100px; text-align: start;"><span class="nodeLabel"></span></div></foreignObject></g><g class="label attribute-type" transform="translate(-141.6875, 9.375)" style=""><foreignObject width="36.0625" height="24"><div xmlns="http://www.w3.org/1999/xhtml" style="display: table-cell; white-space: nowrap; line-height: 1.5; max-width: 141px; text-align: start;"><span class="nodeLabel"><p>TEXT</p></span></div></foreignObject></g><g class="label attribute-name" transform="translate(-80.625, 9.375)" style=""><foreignObject width="69.328125" height="24"><div xmlns="http://www.w3.org/1999/xhtml" style="display: table-cell; white-space: nowrap; line-height: 1.5; max-width: 161px; text-align: start;"><span class="nodeLabel"><p>username</p></span></div></foreignObject></g><g class="label attribute-keys" transform="translate(13.703125, 9.375)" style=""><foreignObject width="19.59375" height="24"><div xmlns="http://www.w3.org/1999/xhtml" style="display: table-cell; white-space: nowrap; line-height: 1.5; max-width: 123px; text-align: start;"><span class="nodeLabel"><p>UK</p></span></div></foreignObject></g><g class="label attribute-comment" transform="translate(58.296875, 9.375)" style=""><foreignObject width="0" height="0"><div xmlns="http://www.w3.org/1999/xhtml" style="display: table-cell; white-space: nowrap; line-height: 1.5; max-width: 100px; text-align: start;"><span class="nodeLabel"></span></div></foreignObject></g><g class="label attribute-type" transform="translate(-141.6875, 52.125)" style=""><foreignObject width="36.0625" height="24"><div xmlns="http://www.w3.org/1999/xhtml" style="display: table-cell; white-space: nowrap; line-height: 1.5; max-width: 141px; text-align: start;"><span class="nodeLabel"><p>TEXT</p></span></div></foreignObject></g><g class="label attribute-name" transform="translate(-80.625, 52.125)" style=""><foreignObject width="65.90625" height="24"><div xmlns="http://www.w3.org/1999/xhtml" style="display: table-cell; white-space: nowrap; line-height: 1.5; max-width: 161px; text-align: start;"><span class="nodeLabel"><p>password</p></span></div></foreignObject></g><g class="label attribute-keys" transform="translate(13.703125, 52.125)" style=""><foreignObject width="0" height="0"><div xmlns="http://www.w3.org/1999/xhtml" style="display: table-cell; white-space: nowrap; line-height: 1.5; max-width: 100px; text-align: start;"><span class="nodeLabel"></span></div></foreignObject></g><g class="label attribute-comment" transform="translate(58.296875, 52.125)" style=""><foreignObject width="83.390625" height="24"><div xmlns="http://www.w3.org/1999/xhtml" style="display: table-cell; white-space: nowrap; line-height: 1.5; max-width: 174px; text-align: start;"><span class="nodeLabel"><p>bcrypt hash</p></span></div></foreignObject></g><g class="label attribute-type" transform="translate(-141.6875, 94.875)" style=""><foreignObject width="36.0625" height="24"><div xmlns="http://www.w3.org/1999/xhtml" style="display: table-cell; white-space: nowrap; line-height: 1.5; max-width: 141px; text-align: start;"><span class="nodeLabel"><p>TEXT</p></span></div></foreignObject></g><g class="label attribute-name" transform="translate(-80.625, 94.875)" style=""><foreignObject width="39.703125" height="24"><div xmlns="http://www.w3.org/1999/xhtml" style="display: table-cell; white-space: nowrap; line-height: 1.5; max-width: 136px; text-align: start;"><span class="nodeLabel"><p>email</p></span></div></foreignObject></g><g class="label attribute-keys" transform="translate(13.703125, 94.875)" style=""><foreignObject width="19.59375" height="24"><div xmlns="http://www.w3.org/1999/xhtml" style="display: table-cell; white-space: nowrap; line-height: 1.5; max-width: 123px; text-align: start;"><span class="nodeLabel"><p>UK</p></span></div></foreignObject></g><g class="label attribute-comment" transform="translate(58.296875, 94.875)" style=""><foreignObject width="0" height="0"><div xmlns="http://www.w3.org/1999/xhtml" style="display: table-cell; white-space: nowrap; line-height: 1.5; max-width: 100px; text-align: start;"><span class="nodeLabel"></span></div></foreignObject></g><g class="divider"><path d="M-154.1875 -85.50005 L-154.1875 -85.49995 L154.1875 -85.49995 L154.1875 -85.50005" stroke="none" stroke-width="0" fill="#ECECFF" fill-rule="evenodd"/><path d="M-154.1875 -85.50005 C-154.1875 -85.50001010078431, -154.1875 -85.49997020156863, -154.1875 -85.49995 M-154.1875 -85.50005 C-154.1875 -85.50002662910128, -154.1875 -85.50000325820255, -154.1875 -85.49995 M-154.1875 -85.49995 C-88.58731903043412 -85.49995, -22.987138060868233 -85.49995, 154.1875 -85.49995 M-154.1875 -85.49995 C-55.380748652689334 -85.49995, 43.42600269462133 -85.49995, 154.1875 -85.49995 M154.1875 -85.49995 C154.1875 -85.4999854988161, 154.1875 -85.50002099763219, 154.1875 -85.50005 M154.1875 -85.49995 C154.1875 -85.49998409791576, 154.1875 -85.50001819583153, 154.1875 -85.50005 M154.1875 -85.50005 C81.35161836708484 -85.50005, 8.515736734169678 -85.50005, -154.1875 -85.50005 M154.1875 -85.50005 C45.368970053028676 -85.50005, -63.44955989394265 -85.50005, -154.1875 -85.50005" stroke="#9370DB" stroke-width="1.3" fill="none" stroke-dasharray="0 0"/></g><g class="divider"><path d="M-93.12505 -85.5 L-93.12495 -85.5 L-93.12495 128.25 L-93.12505 128.25" stroke="none" stroke-width="0" fill="#ECECFF" fill-rule="evenodd"/><path d="M-93.12505 -85.5 C-93.12501556970088 -85.5, -93.12498113940177 -85.5, -93.12495 -85.5 M-93.12505 -85.5 C-93.1250230654462 -85.5, -93.12499613089238 -85.5, -93.12495 -85.5 M-93.12495 -85.5 C-93.12495 -39.442129503612996, -93.12495 6.615740992774008, -93.12495 128.25 M-93.12495 -85.5 C-93.12495 -18.41578194751797, -93.12495 48.66843610496406, -93.12495 128.25 M-93.12495 128.25 C-93.12497197808908 128.25, -93.12499395617814 128.25, -93.12505 128.25 M-93.12495 128.25 C-93.12498430770262 128.25, -93.12501861540524 128.25, -93.12505 128.25 M-93.12505 128.25 C-93.12505 65.24007082568271, -93.12505 2.2301416513654146, -93.12505 -85.5 M-93.12505 128.25 C-93.12505 82.41965658157073, -93.12505 36.58931316314147, -93.12505 -85.5" stroke="#9370DB" stroke-width="1.3" fill="none" stroke-dasharray="0 0"/></g><g class="divider"><path d="M1.203075 -85.5 L1.203175 -85.5 L1.203175 128.25 L1.203075 128.25" stroke="none" stroke-width="0" fill="#ECECFF" fill-rule="evenodd"/><path d="M1.203075 -85.5 C1.2030988291011864 -85.5, 1.203122658202373 -85.5, 1.203175 -85.5 M1.203075 -85.5 C1.2030989316117444 -85.5, 1.203122863223489 -85.5, 1.203175 -85.5 M1.203175 -85.5 C1.203175 -5.017403808009135, 1.203175 75.46519238398173, 1.203175 128.25 M1.203175 -85.5 C1.203175 -3.855342068054455, 1.203175 77.78931586389109, 1.203175 128.25 M1.203175 128.25 C1.2031482180911948 128.25, 1.2031214361823892 128.25, 1.203075 128.25 M1.203175 128.25 C1.2031538589788047 128.25, 1.203132717957609 128.25, 1.203075 128.25 M1.203075 128.25 C1.203075 66.9206006610664, 1.203075 5.591201322132804, 1.203075 -85.5 M1.203075 128.25 C1.203075 49.794892794364, 1.203075 -28.660214411271994, 1.203075 -85.5" stroke="#9370DB" stroke-width="1.3" fill="none" stroke-dasharray="0 0"/></g><g class="divider"><path d="M45.796825 -85.5 L45.796925 -85.5 L45.796925 128.25 L45.796825 128.25" stroke="none" stroke-width="0" fill="#ECECFF" fill-rule="evenodd"/><path d="M45.796825 -85.5 C45.79684749897637 -85.5, 45.79686999795275 -85.5, 45.796925 -85.5 M45.796825 -85.5 C45.79685827801499 -85.5, 45.796891556029976 -85.5, 45.796925 -85.5 M45.796925 -85.5 C45.796925 -13.689204026763719, 45.796925 58.12159194647256, 45.796925 128.25 M45.796925 -85.5 C45.796925 -31.358836601380375, 45.796925 22.78232679723925, 45.796925 128.25 M45.796925 128.25 C45.7968938772991 128.25, 45.79686275459819 128.25, 45.796825 128.25 M45.796925 128.25 C45.796890808308596 128.25, 45.79685661661719 128.25, 45.796825 128.25 M45.796825 128.25 C45.796825 54.68173489905949, 45.796825 -18.886530201881016, 45.796825 -85.5 M45.796825 128.25 C45.796825 83.79014214849862, 45.796825 39.330284296997235, 45.796825 -85.5" stroke="#9370DB" stroke-width="1.3" fill="none" stroke-dasharray="0 0"/></g><g class="divider"><path d="M-154.1875 -85.50005 L-154.1875 -85.49995 L154.1875 -85.49995 L154.1875 -85.50005" stroke="none" stroke-width="0" fill="#ECECFF" fill-rule="evenodd"/><path d="M-154.1875 -85.50005 C-154.1875 -85.50002488814638, -154.1875 -85.49999977629275, -154.1875 -85.49995 M-154.1875 -85.50005 C-154.1875 -85.50002824673072, -154.1875 -85.50000649346144, -154.1875 -85.49995 M-154.1875 -85.49995 C-79.28205131085286 -85.49995, -4.376602621705729 -85.49995, 154.1875 -85.49995 M-154.1875 -85.49995 C-72.87924927242175 -85.49995, 8.42900145515651 -85.49995, 154.1875 -85.49995 M154.1875 -85.49995 C154.1875 -85.49997535937123, 154.1875 -85.50000071874247, 154.1875 -85.50005 M154.1875 -85.49995 C154.1875 -85.49998328644214, 154.1875 -85.50001657288429, 154.1875 -85.50005 M154.1875 -85.50005 C78.41348155619217 -85.50005, 2.639463112384334 -85.50005, -154.1875 -85.50005 M154.1875 -85.50005 C79.79162530985323 -85.50005, 5.395750619706462 -85.50005, -154.1875 -85.50005" stroke="#9370DB" stroke-width="1.3" fill="none" stroke-dasharray="0 0"/></g></g></g></g></g><defs><filter id="my-svg-drop-shadow" height="130%" width="130%"><feDropShadow dx="4" dy="4" stdDeviation="0" flood-opacity="0.06" flood-color="#000000"/></filter></defs><defs><filter id="my-svg-drop-shadow-small" height="150%" width="150%"><feDropShadow dx="2" dy="2" stdDeviation="0" flood-opacity="0.06" flood-color="#000000"/></filter></defs></svg>